<svg width="24" height="24" viewBox="0 0 24 24" fill="none" xmlns="http://www.w3.org/2000/svg">
<path fill-rule="evenodd" clip-rule="evenodd" d="M16 0C13.8783 4.76837e-07 11.8434 0.842856 10.3431 2.34315C8.84286 3.84344 8 5.87827 8.00001 8L16 8L16 0ZM16 0L16 8C20.4183 8 24 4.41828 24 -9.53674e-07L16 0Z" fill="#44D19F"/>
<path fill-rule="evenodd" clip-rule="evenodd" d="M5.81741e-05 8C5.81741e-05 10.1217 0.842913 12.1566 2.3432 13.6569C3.84349 15.1571 5.87832 16 8.00006 16L8.00006 8.0001H8.00006C8.00006 6.94953 7.79314 5.90924 7.3911 4.93863C6.98906 3.96803 6.39979 3.08612 5.65692 2.34325C4.91405 1.60038 4.03214 1.0111 3.06153 0.609065C2.09093 0.207027 1.05064 0.000101089 6.48499e-05 0.000101089L5.81741e-05 8Z" fill="url(#paint0_linear)"/>
<path d="M16 8C17.5823 8 19.129 8.4692 20.4446 9.34825C21.7602 10.2273 22.7855 11.4767 23.391 12.9385C23.9965 14.4003 24.155 16.0089 23.8463 17.5607C23.5376 19.1126 22.7757 20.538 21.6569 21.6569C20.538 22.7757 19.1126 23.5376 17.5607 23.8463C16.0089 24.155 14.4003 23.9965 12.9385 23.391C11.4767 22.7855 10.2273 21.7602 9.34825 20.4446C8.4692 19.129 8 17.5823 8 16L16 16L16 8Z" fill="url(#paint1_linear)"/>
<path d="M8 20C8 22.2091 6.20914 24 4 24C1.79086 24 -5.4282e-07 22.2091 -3.49691e-07 20C-1.56562e-07 17.7909 1.79086 16 4 16C5.06521 16 8 16 8 16C8 16 8 18.8561 8 20Z" fill="url(#paint2_linear)"/>
<defs>
<linearGradient id="paint0_linear" x1="5.50004" y1="16" x2="5.50004" y2="1.23978e-05" gradientUnits="userSpaceOnUse">
<stop stop-color="#003CB4"/>
<stop offset="1" stop-color="#6498FF"/>
</linearGradient>
<linearGradient id="paint1_linear" x1="28.25" y1="25" x2="12.1534" y2="15.2938" gradientUnits="userSpaceOnUse">
<stop stop-color="#4D29C0"/>
<stop offset="1" stop-color="#9D80FF"/>
</linearGradient>
<linearGradient id="paint2_linear" x1="3.99441" y1="16" x2="3.99441" y2="24" gradientUnits="userSpaceOnUse">
<stop stop-color="white"/>
<stop offset="1" stop-color="#E3DDFF"/>
</linearGradient>
</defs>
</svg>