<svg xmlns="http://www.w3.org/2000/svg" viewBox="0 0 106.04 106.04"><defs><style>.cls-1{fill:#fff;}</style></defs><g id="Layer_2" data-name="Layer 2"><g id="Layer_1-2" data-name="Layer 1"><circle cx="53.02" cy="53.02" r="53.02"/><path class="cls-1" d="M16.16,61.35v-.73c0-1.67,1-2.91,3.21-2.91s3.2,1.24,3.2,2.91v.73c0,1.68-1,2.91-3.2,2.91S16.16,63,16.16,61.35Z"/><path class="cls-1" d="M25.82,54.29c0-6.12,3.17-10,8.92-10,3.86,0,6.52,1.86,7.65,5L38,51.19a3.18,3.18,0,0,0-3.28-2.62c-2.19,0-3.32,1.57-3.32,4v3.57c0,2.4,1.13,3.93,3.32,3.93s3-1.31,3.57-2.84L42.49,59c-1.27,3.64-4,5.28-7.75,5.28C29,64.3,25.82,60.4,25.82,54.29Z"/><path class="cls-1" d="M57,60.66h-.18a5.19,5.19,0,0,1-5.36,3.64c-3.89,0-6-2.73-6-7.54v-12h5.39V56.29c0,2.33.77,3.64,2.73,3.64,1.68,0,3.39-1,3.39-2.77V44.75h5.39V63.86H57Z"/><path class="cls-1" d="M72.48,63.86c-3.68,0-5.35-1.85-5.35-5.24V36.92h5.39V59.68h2.4v4.18Z"/><path class="cls-1" d="M84.45,63.86c-3.71,0-5.68-1.93-5.68-5.57V48.93H76.08V44.75h1.34c1.46,0,1.9-.73,1.9-2V39.58h4.84v5.17H88v4.18H84.16V59.68h3.5v4.18Z"/></g></g></svg>