<svg width="32" height="32" viewBox="0 0 32 32" fill="none" xmlns="http://www.w3.org/2000/svg">
<path d="M26.88 0H5.12C2.2923 0 0 2.2923 0 5.12V26.88C0 29.7077 2.2923 32 5.12 32H26.88C29.7077 32 32 29.7077 32 26.88V5.12C32 2.2923 29.7077 0 26.88 0Z" fill="#222325"/>
<path d="M10.0313 12.886V13.011H8.87421C8.71786 13.011 8.63965 13.0892 8.63965 13.2456V13.7147C8.63965 13.8711 8.71786 13.9493 8.87421 13.9493C10 13.9493 10.0157 14.8874 10.0157 15.7319V18.4058C10.0313 19.2502 9.64042 19.8913 8.87421 19.8913C8.71786 19.8913 8.63965 19.9695 8.63965 20.1258V20.595C8.63965 20.7513 8.71786 20.8295 8.87421 20.8295H13.2838C13.4245 20.8295 13.5184 20.7513 13.5184 20.595V20.1258C13.5184 19.9695 13.4245 19.8913 13.2838 19.8913C12.5176 19.8913 12.1267 19.2502 12.1267 18.4058V14.1525H17.1227C17.2635 14.1525 17.3573 14.0743 17.3573 13.918V13.2456C17.3573 13.0892 17.3136 13.011 17.1729 13.011H12.1267V11.979C12.1267 10.7906 12.2361 9.9931 12.627 9.52398C12.8147 9.28942 13.0492 9.17998 13.2838 9.17998C13.6591 9.17998 14.0188 9.49275 14.0188 10.0713C14.0188 10.3684 13.925 10.7124 13.7216 11.1033C13.6435 11.244 13.6591 11.4317 13.7998 11.4317L13.8311 11.4161L15.473 11.0564C15.7076 10.9939 15.8014 10.9157 15.8639 10.7593C15.9733 10.4935 16.0203 10.2277 16.0203 9.97748C16.0203 9.03924 15.2228 8.31995 13.5653 8.31995C10.8288 8.31995 10.0313 11.0252 10.0313 12.886Z" fill="white"/>
<path d="M17.5456 13.9539C17.3735 14.3761 17.7175 12.5622 17.7175 12.5622C17.7175 12.5309 17.7175 12.5153 17.7019 12.5153H17.655C17.6081 12.5153 17.5612 12.5309 17.5299 12.5466C16.8263 12.8436 16.2275 13.0111 14.6794 13.0111C14.523 13.0111 14.4605 13.0893 14.4605 13.2144L14.4338 13.8757C14.4181 13.9851 14.523 14.1357 14.6794 14.1513C15.5551 14.2451 15.5283 15.0484 15.5283 15.8772V21.2563C15.544 22.1007 15.1687 22.7418 14.4025 22.7418C14.2305 22.7418 14.1523 22.82 14.1523 22.9764V23.4455C14.1523 23.6019 14.2305 23.6801 14.3869 23.6801H18.859C19.0154 23.6801 19.0936 23.6019 19.0936 23.4455V22.9764C19.0936 22.82 19.0154 22.7418 18.859 22.7418C18.0928 22.7418 17.7175 22.1007 17.7175 21.2563V20.0054C18.2649 20.4901 18.9529 20.7403 19.7504 20.7403C21.6424 20.7403 23.3938 19.5363 23.3938 16.6435C23.3938 13.6099 21.3453 12.5153 19.938 12.5153C18.3274 12.5153 17.7175 13.5317 17.5456 13.9539ZM17.7175 17.7693V14.9234C17.7175 14.9234 18.0615 13.8913 19.2187 13.8913C20.501 13.8913 21.3922 15.1423 21.3922 17.1438C21.3922 18.4417 20.97 19.7239 19.4689 19.7239C18.4212 19.7239 17.827 18.7544 17.7175 17.7693Z" fill="white"/>
</svg>
