<svg xmlns:cc="http://creativecommons.org/ns#" xmlns:dc="http://purl.org/dc/elements/1.1/" xmlns:inkscape="http://www.inkscape.org/namespaces/inkscape" xmlns:rdf="http://www.w3.org/1999/02/22-rdf-syntax-ns#" xmlns:sodipodi="http://sodipodi.sourceforge.net/DTD/sodipodi-0.dtd" xmlns:svg="http://www.w3.org/2000/svg" xmlns="http://www.w3.org/2000/svg" xmlns:xlink="http://www.w3.org/1999/xlink" version="1.1" id="Capa_1" inkscape:version="0.91 r13725" sodipodi:docname="share_logo.svg" x="0px" y="0px" viewBox="0 0 389.5 512" style="enable-background:new 0 0 389.5 512; width: 100px;" xml:space="preserve">
<style type="text/css">
	.st0{fill:#FFFFFF;}
	.st1{fill:#00DCEC;}
	.st2{fill:#9E22FF;}
	.st3{fill:#FF0064;}
	.st4{fill:#FFC53A;}
</style>
<sodipodi:namedview bordercolor="#666666" borderopacity="1" gridtolerance="10" guidetolerance="10" id="namedview37" inkscape:current-layer="Capa_1" inkscape:cx="256.00101" inkscape:cy="167.0515" inkscape:pageopacity="0" inkscape:pageshadow="2" inkscape:window-height="705" inkscape:window-maximized="1" inkscape:window-width="1366" inkscape:window-x="-8" inkscape:window-y="-8" inkscape:zoom="0.46093569" objecttolerance="10" pagecolor="#ffffff" showgrid="false">
	</sodipodi:namedview>
<g id="g7">
</g>
<g id="g9">
</g>
<g id="g11">
</g>
<g id="g13">
</g>
<g id="g15">
</g>
<g id="g17">
</g>
<g id="g19">
</g>
<g id="g21">
</g>
<g id="g23">
</g>
<g id="g25">
</g>
<g id="g27">
</g>
<g id="g29">
</g>
<g id="g31">
</g>
<g id="g33">
</g>
<g id="g35">
</g>
<g>
	<path class="st0" d="M358.8,475.2c-11.1-38.4-28.3-68.8-48.8-97.5c-16.3,16-39.4,24.6-63.8,21.6c-35.8-4.5-62.9-32.7-67.3-66.9   c-0.8-6.3-0.9-12.9,0-19.5c0.3-2.5,0.7-4.9,1.3-7.3c0-0.1,0-0.2,0.1-0.3c0.6-2.4,1.2-4.8,2-7.1c0,0,0,0,0,0   c4.4-13.5,12.4-25.2,22.7-34.2c15.4-11.2,34.9-16.9,55.2-14.3c1.8,0.2,3.5,0.5,5.2,0.8c0-0.2,0.1-0.3,0.1-0.5c0.1,0,0.2,0,0.3,0.1   c12.9-46.3,26.8-106.9,23.4-187c0,3.2-0.1,6.4-0.2,9.6c-0.4-15.3-1.5-31.3-3.4-48.1C227.8,24,174.7,42.2,132.2,73l-1.2,0.3   c-2.4,1.9-4.7,3.9-7,5.9c-0.3,0.2-0.5,0.4-0.8,0.6c0,0,0,0.1,0,0.1C63,132.8,31.1,211.5,42.8,290.7c0,0.1,0,0.2,0,0.3   c0.3,1.7,0.5,3.4,0.8,5c0,0.2,0.1,0.4,0.1,0.6c0.3,1.8,0.6,3.6,1,5.3c0.1,0.3,0.1,0.5,0.2,0.8c0.3,1.4,0.6,2.8,0.9,4.2   c0.2,0.7,0.3,1.4,0.5,2.1c0.2,1,0.5,1.9,0.7,2.9c0.2,0.8,0.4,1.6,0.6,2.4c0.2,0.9,0.5,1.8,0.7,2.7c0.2,0.7,0.4,1.4,0.6,2.1   c19.9,70.2,71.4,123.3,136.2,149.7c0,0,0,0,0,0c1.8,0.7,3.6,1.4,5.3,2.1c0,0,0.1,0,0.2,0.1c1.7,0.7,3.5,1.3,5.3,1.9   c0.1,0,0.2,0.1,0.3,0.1c1.7,0.6,3.5,1.2,5.2,1.8c0.1,0,0.2,0.1,0.4,0.1c1.7,0.6,3.4,1.1,5.2,1.6c0.2,0,0.3,0.1,0.5,0.1   c1.7,0.5,3.4,1,5.2,1.5c0.2,0,0.3,0.1,0.5,0.1c1.7,0.5,3.5,0.9,5.2,1.4c0.2,0,0.3,0.1,0.5,0.1c1.7,0.4,3.5,0.9,5.3,1.3   c0.2,0,0.3,0.1,0.5,0.1c1.8,0.4,3.6,0.8,5.4,1.2c0.1,0,0.2,0.1,0.4,0.1c1.9,0.4,3.8,0.7,5.6,1.1c0,0,0.1,0,0.1,0   c9.7,1.7,19.6,2.9,29.6,3.5c0.3,0,0.5,0,0.8,0c1.7,0.1,3.4,0.2,5.1,0.2c0.6,0,1.1,0,1.7,0c1.4,0,2.8,0.1,4.3,0.1c0.7,0,1.4,0,2.1,0   c1.3,0,2.6,0,3.8,0c0.8,0,1.6,0,2.4,0c1.2,0,2.4,0,3.6-0.1c0.9,0,1.7-0.1,2.6-0.1c1.1-0.1,2.3-0.1,3.4-0.2c0.9-0.1,1.8-0.1,2.7-0.2   c1.1-0.1,2.2-0.2,3.3-0.2c0.9-0.1,1.9-0.2,2.8-0.2c1.1-0.1,2.2-0.2,3.2-0.3c0.9-0.1,1.9-0.2,2.8-0.3c1.1-0.1,2.1-0.3,3.2-0.4   c1-0.1,1.9-0.3,2.9-0.4c1.1-0.1,2.1-0.3,3.2-0.5c1-0.1,1.9-0.3,2.9-0.5c1.1-0.2,2.1-0.4,3.2-0.5c1-0.2,1.9-0.3,2.9-0.5   c1.1-0.2,2.1-0.4,3.2-0.6c0.9-0.2,1.9-0.4,2.8-0.6c0.5-0.1,1-0.2,1.5-0.3c0,0,0,0,0,0c5.3-1.1,10.5-2.4,15.8-3.9   C353.9,476.8,356.4,476,358.8,475.2z"/>
	<path class="st0" d="M281.3,512c-0.7,0-1.3,0-2,0l-0.7,0c-0.5,0-1.1,0-1.6,0c-1.6,0-3.1-0.1-4.7-0.1l-0.5,0c-0.4,0-0.8,0-1.3,0   c-1.9-0.1-3.7-0.2-5.6-0.3l-0.9,0c-10.8-0.6-21.8-1.9-32.5-3.8l-0.2,0c-2.1-0.4-4.1-0.8-6.1-1.2l-0.4-0.1c-2-0.4-4-0.8-5.9-1.3   l-0.5-0.1c-1.9-0.4-3.9-0.9-5.8-1.4l-0.5-0.1c-1.9-0.5-3.8-1-5.7-1.5l-0.4-0.1c-2-0.6-3.9-1.1-5.8-1.7l-0.4-0.1   c-2-0.6-3.9-1.2-5.7-1.8l-0.5-0.2c-1.8-0.6-3.7-1.2-5.6-1.9l-0.2-0.1c-2-0.7-3.9-1.4-5.8-2.1l-0.3-0.1c-1.7-0.7-3.6-1.4-5.4-2.1   l-1.2-0.5c-74-30.5-128.5-90.7-149.7-165.4c-0.2-0.5-0.3-1.1-0.4-1.6l-0.2-0.6c-0.3-1-0.6-2-0.8-3.1c-0.2-0.8-0.4-1.5-0.6-2.3   l-0.1-0.3c-0.3-1.1-0.5-2.1-0.8-3.2l-0.1-0.3c-0.2-0.7-0.3-1.4-0.5-2.1c-0.3-1.5-0.7-3-1-4.6l-0.2-0.9c-0.4-2-0.8-4-1.1-5.9   l-0.1-0.6c-0.3-2-0.6-3.8-0.9-5.7l0-0.3C6.1,210.9,36.9,126.4,101,66.8l0.2-0.9l7.2-5.7c2.4-2.1,4.8-4.1,7.2-6l3.9-3.2l1.9-0.5   C169.3,16.8,226-0.6,285.7,0l21.8,0.2l2.4,21.7c1.5,13.4,2.5,26.8,3.1,40.2l0.6,0c3.5,82-10.3,144.4-24.2,194.6l-6.1,21.8l-0.3-0.1   l-0.1,0.5l-22.3-4.3c-1.4-0.3-2.6-0.5-3.6-0.6c-13-1.6-26.1,1.6-36.8,9.2c-6.5,5.9-11.4,13.2-14.3,21.4l-0.4,1.2   c-0.5,1.6-1,3.2-1.3,4.8l-0.1,0.2c-0.4,1.7-0.7,3.4-0.9,5c-0.6,4.5-0.6,8.9,0,13.3c3.1,23.9,22,42.7,45.9,45.7   c16.1,2,32-3.4,43.6-14.7l20.5-20.1l16.7,23.3c25.7,35.9,41.9,68.3,52.4,105l6.7,23.1l-22.9,7.2l0.3,1.2l-25.6,5.6   c-0.4,0.1-0.8,0.2-1.2,0.3l-0.4,0.1c-1,0.2-2.1,0.4-3.1,0.6c-1.2,0.2-2.3,0.5-3.5,0.7c-1,0.2-2.1,0.4-3.1,0.6   c-1.2,0.2-2.3,0.4-3.5,0.6c-1.1,0.2-2.1,0.3-3.2,0.5c-1.1,0.2-2.3,0.3-3.5,0.5c-1,0.1-2.1,0.3-3.1,0.4c-1.2,0.2-2.4,0.3-3.5,0.4   c-1,0.1-2.1,0.2-3.1,0.3c-1.2,0.1-2.3,0.2-3.5,0.3l-0.2,0c-0.9,0.1-1.9,0.2-2.8,0.2c-1.2,0.1-2.4,0.2-3.7,0.3l-0.3,0   c-0.9,0.1-1.8,0.1-2.6,0.2c-1.2,0.1-2.3,0.1-3.4,0.2l-1,0c-0.7,0-1.4,0.1-2.1,0.1c-1.3,0-2.6,0.1-3.9,0.1l-0.7,0   c-0.6,0-1.3,0-1.9,0C282.7,512,282,512,281.3,512z M195.2,446.4c1.3,0.5,2.6,1,4,1.6c1.7,0.7,3.3,1.2,4.9,1.8l0.2,0.1   c1.6,0.6,3.1,1.1,4.7,1.6l0.5,0.2c1.4,0.5,3,0.9,4.5,1.4l0.3,0.1c1.6,0.5,3.2,0.9,4.7,1.4l0.4,0.1c1.6,0.4,3.2,0.9,4.7,1.3l0.4,0.1   c1.7,0.4,3.2,0.8,4.8,1.2l0.4,0.1c1.6,0.4,3.2,0.7,4.9,1l0.5,0.1c1.6,0.3,3.3,0.6,5,0.9l0.2,0c8.8,1.6,17.8,2.6,26.7,3.1l0.7,0   c1.5,0.1,3.1,0.2,4.6,0.2l1.5,0c1.3,0,2.6,0.1,3.9,0.1l1.9,0c1.2,0,2.3,0,3.5,0l2.2,0c1.1,0,2.1,0,3.2-0.1c0.5,0,1.1,0,1.6-0.1l1,0   c0.9,0,1.9-0.1,2.8-0.1c0.7,0,1.4-0.1,2.1-0.1l0.3,0c1-0.1,2-0.1,3-0.2c0.8-0.1,1.5-0.1,2.3-0.2l0.2,0c1-0.1,1.9-0.2,2.9-0.3   c0.9-0.1,1.7-0.2,2.6-0.3c1-0.1,1.9-0.2,2.9-0.4c0.8-0.1,1.7-0.2,2.6-0.3c1-0.1,1.9-0.3,2.9-0.4c0.9-0.1,1.8-0.3,2.6-0.4   c1-0.2,1.9-0.3,2.9-0.5c0.8-0.2,1.7-0.3,2.6-0.5c1-0.2,1.9-0.4,2.9-0.6c0.2,0,0.3-0.1,0.5-0.1c-6.1-15.3-13.7-30.1-23.3-45.5   c-18.4,9.8-39.4,13.8-60.6,11.2c-46.2-5.8-82.7-42-88.7-88.2c-1.1-8.5-1.1-17.2,0-25.7c0-0.2,0-0.3,0.1-0.5l-1.6-1l5.8-17.8   c5.7-17.4,16.1-33,29.9-45l0.8-0.7l0.9-0.6c16.7-12.2,36.3-18.9,56.6-19.6l0.8-2.9l0.1,0c10.1-40.4,18.6-88.7,17-148.2l-0.6,0   c-0.2-7.7-0.6-15.6-1.2-23.4c-42.4,3.5-82.2,18.1-116.3,42.9l-3.5,2.6l-0.4,0.1c-0.7,0.6-1.4,1.2-2.1,1.8l-1.1,1   c-55.5,48.8-82.6,119.3-72.3,188.7l0,0.2c0.2,1.5,0.5,3,0.7,4.6l0.1,0.5c0.3,1.7,0.6,3.2,0.9,4.8l0.2,0.8c0.2,1.2,0.5,2.4,0.8,3.6   c0.1,0.6,0.2,1.1,0.4,1.6l0.1,0.3c0.2,0.8,0.4,1.7,0.6,2.5l0.1,0.3c0.1,0.6,0.3,1.2,0.4,1.8c0.2,0.8,0.4,1.6,0.7,2.4l0.5,1.8   c17,60.2,61.3,108.9,121.5,133.5L195.2,446.4z"/>
</g>
<g>
	<g>
		<path class="st1" d="M258.8,249.8c1.7,0.2,3.4,0.5,5.1,0.8c14.6-52.3,30.5-123.3,19.8-221c-60.4-0.6-115.9,19.8-158.7,54    c-5.7,21.7-10.5,40.3-10.5,40.3l81.4,147.4C211.8,255.5,234.7,246.8,258.8,249.8z"/>
	</g>
	<g>
		<path class="st2" d="M245.2,396.2c-41.6-5.2-71.1-43.1-65.9-84.7c3-24.1,17.1-44.2,36.5-55.8c-30.3-44.5-59.7-99.7-82.1-178.8    l-1.2,0.3C61.3,134.9,26.8,228,52.1,317.7c34.6,122.1,167.1,191.5,296,155c2.4-0.7,4.8-1.5,7.2-2.2    c-10.8-37.6-27.7-67.3-47.8-95.3C291.7,390.7,269,399.2,245.2,396.2z"/>
	</g>
	<g>
		<path class="st3" d="M245.2,396.3c-41.6-5.2-71.1-43.1-65.9-84.7c0.6-5,1.7-9.8,3.2-14.4c-45.5-45.6-88.6-94.7-109.3-149.5    c-28.4,50.8-37.7,111.1-21.1,170C85.3,435,208.8,503.5,332.7,476.5c-7.9-27.5-28.1-55.1-54.2-83.6    C268.1,396.4,256.8,397.7,245.2,396.3z"/>
	</g>
	<g>
		<path class="st4" d="M243.6,249c5.1-0.4,10.3-0.3,15.5,0.4c1.7,0.2,3.4,0.5,5.1,0.8c12.6-45.3,26.2-104.6,22.9-182.9    C286.2,146.9,261.3,206.4,243.6,249z"/>
	</g>
</g>
</svg>