<svg width="50" height="50" viewBox="0 0 50 50" fill="none" xmlns="http://www.w3.org/2000/svg">
<g clip-path="url(#clip0_118_7)">
<path d="M38.2812 0H11.7188C5.24666 0 0 5.24666 0 11.7188V38.2812C0 44.7533 5.24666 50 11.7188 50H38.2812C44.7533 50 50 44.7533 50 38.2812V11.7188C50 5.24666 44.7533 0 38.2812 0Z" fill="#5865F2"/>
<mask id="mask0_118_7" style="mask-type:luminance" maskUnits="userSpaceOnUse" x="5" y="9" width="40" height="32">
<path d="M5.46875 9.96094H44.5312V40.2207H5.46875V9.96094Z" fill="white"/>
</mask>
<g mask="url(#mask0_118_7)">
<path d="M38.5367 12.6557C36.0042 11.4931 33.3316 10.6641 30.5857 10.1895C30.5608 10.1848 30.535 10.1882 30.5121 10.1991C30.4892 10.2099 30.4702 10.2278 30.458 10.25C30.1147 10.8605 29.7342 11.6574 29.468 12.2836C26.4654 11.834 23.4785 11.834 20.5377 12.2836C20.2713 11.6434 19.8771 10.8605 19.5322 10.25C19.5195 10.2282 19.5004 10.2108 19.4776 10.2C19.4548 10.1892 19.4292 10.1855 19.4043 10.1895C16.6582 10.6632 13.9855 11.4922 11.4533 12.6557C11.4317 12.6649 11.4134 12.6806 11.401 12.7006C6.33692 20.2662 4.94981 27.6459 5.63028 34.9342C5.63217 34.952 5.63764 34.9693 5.64637 34.9851C5.65509 35.0008 5.66689 35.0145 5.68106 35.0256C9.02207 37.4793 12.2586 38.9689 15.435 39.9563C15.4597 39.9636 15.486 39.9633 15.5105 39.9552C15.535 39.9472 15.5565 39.9319 15.5721 39.9113C16.3234 38.8852 16.9932 37.8033 17.5676 36.6656C17.5755 36.65 17.58 36.633 17.5808 36.6155C17.5817 36.598 17.5788 36.5806 17.5724 36.5644C17.566 36.5481 17.5562 36.5334 17.5437 36.5212C17.5312 36.509 17.5162 36.4996 17.4998 36.4936C16.4373 36.0904 15.4258 35.5992 14.4527 35.0412C14.435 35.0308 14.4201 35.0161 14.4094 34.9986C14.3987 34.981 14.3924 34.9611 14.3912 34.9406C14.39 34.92 14.3938 34.8995 14.4024 34.8808C14.411 34.8622 14.4241 34.8459 14.4404 34.8334C14.6457 34.6799 14.8474 34.5218 15.0455 34.3592C15.0628 34.3448 15.0839 34.3356 15.1061 34.3326C15.1284 34.3296 15.1511 34.3328 15.1717 34.342C21.5646 37.2607 28.4855 37.2607 34.8029 34.342C34.8235 34.3322 34.8465 34.3285 34.8692 34.3313C34.8918 34.334 34.9132 34.3432 34.9309 34.3576C35.1291 34.5212 35.3314 34.6798 35.5375 34.8334C35.5539 34.8457 35.5671 34.8619 35.5758 34.8805C35.5845 34.8992 35.5885 34.9196 35.5875 34.9402C35.5864 34.9607 35.5803 34.9806 35.5697 34.9983C35.5591 35.0159 35.5444 35.0306 35.5268 35.0412C34.5532 35.6097 33.5333 36.095 32.4781 36.492C32.4617 36.4983 32.4469 36.5079 32.4345 36.5203C32.4221 36.5327 32.4124 36.5476 32.4062 36.564C32.3999 36.5804 32.3972 36.5979 32.3982 36.6154C32.3992 36.6329 32.4039 36.65 32.4119 36.6656C32.9963 37.7943 33.6627 38.8786 34.4057 39.9098C34.4208 39.9309 34.4422 39.9467 34.4667 39.955C34.4913 39.9634 34.5179 39.9638 34.5428 39.9563C37.7346 38.9689 40.9711 37.4793 44.3123 35.0256C44.3266 35.015 44.3386 35.0016 44.3473 34.9861C44.3561 34.9706 44.3614 34.9535 44.3631 34.9357C45.1775 26.5098 42.9988 19.1904 38.5875 12.7021C38.5767 12.6811 38.5587 12.6646 38.5367 12.6557ZM18.5223 30.4965C16.5975 30.4965 15.0115 28.7295 15.0115 26.5594C15.0115 24.3893 16.5668 22.6223 18.5223 22.6223C20.493 22.6223 22.0635 24.4049 22.0326 26.5594C22.0326 28.7295 20.4777 30.4965 18.5223 30.4965ZM31.502 30.4965C29.5771 30.4965 27.9914 28.7295 27.9914 26.5594C27.9914 24.3893 29.5465 22.6223 31.502 22.6223C33.4727 22.6223 35.0432 24.4049 35.0125 26.5594C35.0125 28.7295 33.4727 30.4965 31.502 30.4965Z" fill="white"/>
</g>
</g>
<defs>
<clipPath id="clip0_118_7">
<rect width="50" height="50" fill="white"/>
</clipPath>
</defs>
</svg>
