<svg width="94" height="104" viewBox="0 0 94 104" fill="none" xmlns="http://www.w3.org/2000/svg">
<ellipse cx="47.2468" cy="3.69111" rx="3.93719" ry="3.69111" fill="#EFEFEF"/>
<ellipse cx="47.2468" cy="3.69111" rx="3.93719" ry="3.69111" fill="#EFEFEF"/>
<ellipse cx="5.41375" cy="27.8066" rx="3.93719" ry="3.69111" fill="#EFEFEF"/>
<ellipse cx="89.0788" cy="27.8066" rx="3.93719" ry="3.69111" fill="#EFEFEF"/>
<ellipse cx="89.0788" cy="76.0371" rx="3.93719" ry="3.69111" fill="#EFEFEF"/>
<ellipse cx="5.41375" cy="76.0371" rx="3.93719" ry="3.69111" fill="#EFEFEF"/>
<ellipse cx="47.2468" cy="100.152" rx="3.93719" ry="3.69111" fill="#EFEFEF"/>
<circle cx="68.1627" cy="88.3407" r="5.16756" fill="#EFEFEF"/>
<circle cx="26.3297" cy="88.3407" r="5.16756" fill="#EFEFEF"/>
<circle cx="26.3297" cy="15.5028" r="5.16756" fill="#EFEFEF"/>
<circle cx="68.1627" cy="15.5028" r="5.16756" fill="#EFEFEF"/>
<circle cx="88.8326" cy="51.9217" r="5.16756" fill="#EFEFEF"/>
<circle cx="5.16756" cy="51.9217" r="5.16756" fill="#EFEFEF"/>
<ellipse cx="26.3296" cy="39.864" rx="6.15185" ry="6.39793" fill="#EFEFEF"/>
<ellipse cx="68.1626" cy="39.864" rx="6.15185" ry="6.39793" fill="#EFEFEF"/>
<ellipse cx="68.1626" cy="63.9792" rx="6.15185" ry="6.39793" fill="#EFEFEF"/>
<ellipse cx="26.3296" cy="63.9792" rx="6.15185" ry="6.39793" fill="#EFEFEF"/>
<circle cx="47.2466" cy="76.2829" r="6.39793" fill="#EFEFEF"/>
<circle cx="47.2465" cy="52.1676" r="7.38223" fill="#EFEFEF"/>
<circle cx="47.2466" cy="28.0525" r="6.39793" fill="#EFEFEF"/>
</svg>
