<svg width="40" height="40" viewBox="0 0 40 40" fill="none" xmlns="http://www.w3.org/2000/svg">
<g filter="url(#filter0_d_1354_6062)">
<path fill-rule="evenodd" clip-rule="evenodd" d="M32.753 31.5337C33.0744 31.8598 33.0744 32.3829 32.753 32.709V32.709C32.4216 33.0383 31.8856 33.037 31.5558 32.7062C31.226 32.3754 31.2273 31.8404 31.5586 31.5112V31.5112C31.7193 31.3547 31.9361 31.2691 32.1605 31.2733C32.385 31.2775 32.5983 31.3713 32.753 31.5337V31.5337ZM7.27441 7.26108V7.26108C6.94459 7.59186 6.94585 8.12691 7.27722 8.45615C7.6086 8.78538 8.1446 8.78412 8.47442 8.45333V8.45333C8.78469 8.12095 8.77553 7.603 8.45371 7.28175C8.13189 6.9605 7.61301 6.95136 7.28004 7.26108H7.27441ZM20.0316 6.50186H20.0034C19.5367 6.50186 19.1583 6.87954 19.1583 7.34544C19.1583 7.81134 19.5367 8.18902 20.0034 8.18902V8.18902C20.4701 8.18902 20.8485 7.81134 20.8485 7.34544C20.8485 6.87954 20.4701 6.50186 20.0034 6.50186H20.0316ZM20.0307 31.8092V31.8092C19.564 31.8092 19.1857 32.1869 19.1857 32.6528C19.1857 33.1187 19.564 33.4964 20.0307 33.4964H20.0589C20.5256 33.4964 20.904 33.1187 20.904 32.6528C20.904 32.1869 20.5256 31.8092 20.0589 31.8092H20.0307ZM7.26004 31.5336C6.98367 31.8111 6.93469 32.2418 7.14173 32.5741C7.20795 32.6851 7.3009 32.7779 7.41216 32.844C7.78734 33.0776 8.27954 32.9831 8.541 32.6271C8.80246 32.271 8.74477 31.774 8.40868 31.4871C8.07258 31.2003 7.57176 31.2205 7.26004 31.5336V31.5336ZM31.5571 7.27795C31.2798 7.56228 31.2332 7.99904 31.4444 8.33524V8.33524C31.5053 8.43344 31.5883 8.51621 31.6866 8.57706V8.57706C32.0239 8.78577 32.4601 8.73946 32.7458 8.46459C32.9719 8.25429 33.065 7.93757 32.9885 7.63868C32.912 7.33979 32.6782 7.1064 32.3788 7.03007C32.0794 6.95374 31.7621 7.04664 31.5514 7.27233L31.5571 7.27795ZM9.4155 14.7802C11.0007 11.6254 13.899 9.329 17.3367 8.50395C17.4264 8.48424 17.504 8.42832 17.551 8.34948C17.5979 8.27064 17.6101 8.17591 17.5846 8.08779C17.4967 7.80015 17.4586 7.49965 17.4719 7.19922C17.4799 7.09406 17.4374 6.99136 17.3574 6.92254C17.2773 6.85373 17.1693 6.827 17.0663 6.85054C16.6043 6.95739 16.148 7.06425 15.6972 7.21609C9.95636 9.15283 6.20744 14.6659 6.52346 20.7067C6.83949 26.7476 11.1433 31.8409 17.055 33.1702C17.1597 33.192 17.2686 33.163 17.3485 33.092C17.4284 33.0211 17.47 32.9166 17.4606 32.8103C17.4398 32.5081 17.4761 32.2048 17.5677 31.9161C17.5932 31.828 17.581 31.7332 17.5341 31.6544C17.4871 31.5755 17.4095 31.5196 17.3198 31.4999C13.8842 30.6706 10.9875 28.3755 9.39859 25.2237C7.79838 21.9258 7.79838 18.0781 9.39859 14.7802H9.4155ZM29.4504 33.2939C23.782 37.3172 16.1834 37.3172 10.515 33.2939C10.4405 33.2425 10.3485 33.2231 10.2595 33.24C10.1706 33.2569 10.0921 33.3087 10.0418 33.3839C9.83983 33.6395 9.61953 33.8801 9.38261 34.1037C9.31721 34.1673 9.28032 34.2545 9.28032 34.3456C9.28032 34.4367 9.31721 34.5239 9.38261 34.5874C10.8617 35.7173 12.5366 36.5656 14.3235 37.09C19.7909 38.8947 25.793 37.9835 30.4758 34.638C30.5566 34.574 30.6037 34.4767 30.6037 34.3737C30.6037 34.2707 30.5566 34.1734 30.4758 34.1094C30.2395 33.9056 30.0361 33.6666 29.8729 33.4008C29.7784 33.2651 29.5983 33.2195 29.4504 33.2939V33.2939ZM31.4288 8.33524C31.4898 8.43344 31.5727 8.51621 31.6711 8.57706L31.5528 8.45334L31.4288 8.33524ZM19.9865 14.3753C16.875 14.3753 14.3526 16.8931 14.3526 19.9991C14.3526 23.1051 16.875 25.623 19.9865 25.623C23.098 25.623 25.6203 23.1051 25.6203 19.9991C25.6204 16.9019 23.1117 14.3876 20.009 14.3753H19.9865ZM31.8183 19.9991C31.8248 21.8094 31.4142 23.597 30.6183 25.2237C29.0295 28.3755 26.1328 30.6706 22.6971 31.4999C22.6074 31.5196 22.5298 31.5755 22.4829 31.6544C22.4359 31.7332 22.4237 31.8279 22.4492 31.9161C22.5381 32.2054 22.5743 32.5082 22.5563 32.8103C22.5469 32.9166 22.5885 33.0211 22.6684 33.092C22.7484 33.163 22.8572 33.192 22.9619 33.1702C26.8692 32.2967 30.1877 29.7395 32.0235 26.1874C33.8593 22.6352 34.0235 18.4536 32.4719 14.7689C30.9538 11.2314 28.0191 8.49152 24.3817 7.21609C23.9337 7.07122 23.4786 6.94921 23.0183 6.85054C22.9148 6.82743 22.8065 6.85412 22.7256 6.92264C22.6448 6.99115 22.6009 7.09355 22.607 7.19921C22.6251 7.49942 22.5888 7.80042 22.4999 8.08778C22.4744 8.1759 22.4866 8.27063 22.5336 8.34948C22.5805 8.42832 22.6581 8.48423 22.7478 8.50395C26.1856 9.329 29.0838 11.6254 30.669 14.7802C31.4543 16.4075 31.8552 18.1929 31.8409 19.9991H31.8183ZM33.3938 29.914C33.6601 30.0769 33.8995 30.2798 34.1037 30.5157C34.1709 30.593 34.2701 30.635 34.3725 30.6296C34.475 30.6241 34.5691 30.5717 34.6276 30.4876C37.981 25.8141 38.8959 19.8226 37.0896 14.364C36.5643 12.5803 35.7144 10.9084 34.5826 9.43189C34.5189 9.36661 34.4316 9.32979 34.3403 9.32979C34.2491 9.32979 34.1617 9.36661 34.098 9.43189C33.874 9.66839 33.633 9.8883 33.3769 10.0899C33.3016 10.1401 33.2497 10.2184 33.2328 10.3072C33.2158 10.396 33.2353 10.4879 33.2868 10.5623C37.3172 16.2206 37.3172 23.8057 33.2868 29.4641C33.1947 29.6183 33.2421 29.8176 33.3938 29.914V29.914ZM6.60563 10.0786C6.3381 9.91751 6.09839 9.71431 5.89577 9.47687C5.82854 9.39956 5.72932 9.35756 5.62691 9.36305C5.52449 9.36855 5.43036 9.42093 5.37182 9.50499C2.01846 14.1785 1.10359 20.17 2.90982 25.6286C3.43516 27.4123 4.28501 29.0842 5.41689 30.5607C5.48053 30.626 5.5679 30.6628 5.65914 30.6628C5.75039 30.6628 5.83776 30.626 5.9014 30.5607C6.12409 30.3245 6.36523 30.1064 6.62253 29.9083C6.69819 29.857 6.75023 29.7778 6.76715 29.688C6.78407 29.5983 6.76446 29.5056 6.71268 29.4303C2.68225 23.772 2.68225 16.1869 6.71268 10.5285C6.8048 10.3744 6.75736 10.175 6.60563 10.0786ZM10.5475 6.70431C16.2159 2.68104 23.8145 2.68104 29.4829 6.70431C29.5574 6.75573 29.6494 6.77515 29.7384 6.75824C29.8273 6.74132 29.9058 6.68948 29.9561 6.61433C30.158 6.35874 30.3784 6.11815 30.6153 5.89448C30.6807 5.83095 30.7176 5.74374 30.7176 5.65265C30.7176 5.56157 30.6807 5.47435 30.6153 5.41083C29.1362 4.28096 27.4613 3.43261 25.6744 2.90821C20.2061 1.10518 14.204 2.01843 9.52212 5.36583C9.43791 5.42427 9.38543 5.51824 9.37993 5.62047C9.37442 5.7227 9.4165 5.82174 9.49395 5.88885C9.7318 6.09111 9.93536 6.3304 10.0968 6.59746C10.1933 6.74961 10.395 6.79492 10.5475 6.69869V6.70431Z" fill="white"/>
</g>
<defs>
<filter id="filter0_d_1354_6062" x="0" y="0" width="39.999" height="40" filterUnits="userSpaceOnUse" color-interpolation-filters="sRGB">
<feFlood flood-opacity="0" result="BackgroundImageFix"/>
<feColorMatrix in="SourceAlpha" type="matrix" values="0 0 0 0 0 0 0 0 0 0 0 0 0 0 0 0 0 0 127 0" result="hardAlpha"/>
<feOffset/>
<feGaussianBlur stdDeviation="1"/>
<feColorMatrix type="matrix" values="0 0 0 0 0 0 0 0 0 0 0 0 0 0 0 0 0 0 0.402304 0"/>
<feBlend mode="normal" in2="BackgroundImageFix" result="effect1_dropShadow_1354_6062"/>
<feBlend mode="normal" in="SourceGraphic" in2="effect1_dropShadow_1354_6062" result="shape"/>
</filter>
</defs>
</svg>