<svg width="838" height="838" viewBox="0 0 838 838" fill="none" xmlns="http://www.w3.org/2000/svg">
<g clip-path="url(#clip0_229_705)">
<mask id="mask0_229_705" style="mask-type:luminance" maskUnits="userSpaceOnUse" x="216" y="216" width="406" height="406">
<path d="M622 216H216V622H622V216Z" fill="white"/>
</mask>
<g mask="url(#mask0_229_705)">
<path d="M322.97 364.14C323.255 325.477 338.587 288.445 365.717 260.897H365.668L260.925 365.639H260.975C260.585 365.946 260.217 366.281 259.875 366.64C234.402 392.079 218.958 425.853 216.377 461.761C213.796 497.67 224.252 533.305 245.826 562.126L351.618 456.333L352.719 455.283C333.001 429.025 322.54 396.974 322.97 364.14Z" fill="#0C8C5E"/>
<path d="M577.302 472.532C557.256 492.179 532.091 505.797 504.679 511.835C477.267 517.872 448.71 516.086 422.264 506.68C408.163 501.674 394.911 494.542 382.966 485.531L381.866 486.631L276.074 592.374C304.907 613.894 340.522 624.316 376.408 621.737C412.293 619.157 446.051 603.747 471.51 578.325L472.56 577.275L577.302 472.532Z" fill="#0C8C5E"/>
<path d="M622.2 365.639V221.477C622.2 218.452 619.747 216 616.723 216H472.561C452.908 215.98 433.445 219.844 415.289 227.368C397.134 234.893 380.644 245.931 366.768 259.847L365.718 260.897C347.427 279.466 334.34 302.519 327.771 327.742C339.663 324.663 351.884 323.034 364.168 322.892C397.003 322.506 429.046 332.982 455.311 352.691C478.918 370.295 496.784 394.493 506.658 422.236C516.721 450.591 518.045 481.314 510.457 510.429C535.686 503.871 558.741 490.783 577.303 472.482L578.353 471.482C592.275 457.599 603.316 441.102 610.841 422.937C618.366 404.774 622.226 385.301 622.2 365.639Z" fill="#18E299"/>
</g>
</g>
<defs>
<clipPath id="clip0_229_705">
<rect width="406" height="406" fill="white" transform="translate(216 216)"/>
</clipPath>
</defs>
</svg>
