<svg width="50" height="50" viewBox="0 0 50 50" fill="none" xmlns="http://www.w3.org/2000/svg">
<path d="M25 4.16666C22.2641 4.16666 19.555 4.70553 17.0274 5.7525C14.4998 6.79947 12.2032 8.33404 10.2686 10.2686C6.36159 14.1756 4.16666 19.4746 4.16666 25C4.16666 34.2083 10.1458 42.0208 18.4167 44.7917C19.4583 44.9583 19.7917 44.3125 19.7917 43.75V40.2292C14.0208 41.4792 12.7917 37.4375 12.7917 37.4375C11.8333 35.0208 10.4792 34.375 10.4792 34.375C8.58332 33.0833 10.625 33.125 10.625 33.125C12.7083 33.2708 13.8125 35.2708 13.8125 35.2708C15.625 38.4375 18.6875 37.5 19.875 37C20.0625 35.6458 20.6042 34.7292 21.1875 34.2083C16.5625 33.6875 11.7083 31.8958 11.7083 23.9583C11.7083 21.6458 12.5 19.7917 13.8542 18.3125C13.6458 17.7917 12.9167 15.625 14.0625 12.8125C14.0625 12.8125 15.8125 12.25 19.7917 14.9375C21.4375 14.4792 23.2292 14.25 25 14.25C26.7708 14.25 28.5625 14.4792 30.2083 14.9375C34.1875 12.25 35.9375 12.8125 35.9375 12.8125C37.0833 15.625 36.3542 17.7917 36.1458 18.3125C37.5 19.7917 38.2917 21.6458 38.2917 23.9583C38.2917 31.9167 33.4167 33.6667 28.7708 34.1875C29.5208 34.8333 30.2083 36.1042 30.2083 38.0417V43.75C30.2083 44.3125 30.5417 44.9792 31.6042 44.7917C39.875 42 45.8333 34.2083 45.8333 25C45.8333 22.2641 45.2945 19.555 44.2475 17.0274C43.2005 14.4998 41.6659 12.2032 39.7314 10.2686C37.7968 8.33404 35.5002 6.79947 32.9726 5.7525C30.4449 4.70553 27.7359 4.16666 25 4.16666Z" fill="white"/>
</svg>
