<svg width="16" height="16" xmlns="http://www.w3.org/2000/svg" xmlns:xlink="http://www.w3.org/1999/xlink"><g transform="translate(64 122)"><mask id="a"><path d="M-64-122h16v16h-16v-16z" fill="#FFF"/></mask><g style="mix-blend-mode:normal" mask="url(#a)"><use xlink:href="#b" transform="translate(-56 -116)" fill="#1ABCFE" style="mix-blend-mode:normal"/><use xlink:href="#c" transform="translate(-61 -111)" fill="#0ACF83" style="mix-blend-mode:normal"/><use xlink:href="#d" transform="matrix(0 1 1 0 -56 -121)" fill="#FF7262" style="mix-blend-mode:normal"/><use xlink:href="#e" transform="matrix(1 0 0 -1 -61 -116)" fill="#F24E1E" style="mix-blend-mode:normal"/><use xlink:href="#e" transform="matrix(1 0 0 -1 -61 -111)" fill="#A259FF" style="mix-blend-mode:normal"/></g></g><defs><path id="b" d="M0 2.5a2.5 2.5 0 0 1 5 0 2.5 2.5 0 0 1-5 0z"/><path id="c" d="M0 2.5A2.5 2.5 0 0 1 2.5 0H5v2.5a2.5 2.5 0 0 1-5 0z"/><path id="d" d="M0 0h5v2.5a2.5 2.5 0 0 1-5 0V0z"/><path id="e" d="M0 2.5A2.5 2.5 0 0 1 2.5 0H5v5H2.5A2.5 2.5 0 0 1 0 2.5z"/></defs></svg>