<svg width="24" height="24" viewBox="0 0 24 24" fill="none" xmlns="http://www.w3.org/2000/svg">
  <path fill-rule="evenodd" clip-rule="evenodd"
    d="M0 11.9978C0 5.37489 5.37102 0 12 0C18.6295 0 24 5.37974 24 12.0022C24 18.6251 18.629 24 12 24H11.0266V23.9567C4.85695 23.4609 0 18.2934 0 11.9978ZM12.2985 22.0493C17.7137 21.8914 22.0533 17.4509 22.0533 12.0022C22.0533 6.45321 17.5528 1.9464 12 1.9464C6.44668 1.9464 1.94675 6.44936 1.94675 11.9978C1.94675 17.546 6.45078 22.0493 12 22.0493H12.2985Z"
    fill="#000000" />
  <path fill-rule="evenodd" clip-rule="evenodd"
    d="M7.14165 3.2064C7.0082 3.1644 6.86984 3.12087 6.72571 3.07197L7.35119 1.22878C7.40866 1.24827 7.51212 1.28126 7.63291 1.31978C7.84991 1.38898 8.12283 1.476 8.2854 1.53462L8.29413 1.53777L8.30279 1.54108C8.34728 1.55809 8.39494 1.57611 8.44493 1.59502C8.69674 1.69025 9.00742 1.80775 9.2669 1.9291L9.27843 1.93449L9.32984 1.9602C9.45196 2.01713 9.63533 2.10453 9.78805 2.17732C9.87379 2.21819 9.94987 2.25445 10 2.27813L10.0233 2.2891L10.0459 2.30127C10.0511 2.3041 10.0573 2.3074 10.0643 2.31113C10.1169 2.33931 10.215 2.39182 10.3092 2.44936L10.335 2.46514L10.3423 2.47026C10.3529 2.47644 10.3675 2.4847 10.3855 2.49471C10.4012 2.50346 10.4163 2.51178 10.4314 2.52009C10.4344 2.52173 10.4374 2.52336 10.4403 2.52499C10.4487 2.52958 10.4581 2.53479 10.4666 2.53953C10.471 2.54194 10.4826 2.54841 10.4953 2.55583C10.5068 2.56244 10.5244 2.57253 10.5466 2.58516C10.6143 2.62379 10.7236 2.68622 10.8252 2.74569C10.9298 2.80695 11.0895 2.90132 11.2077 2.98415C11.3343 3.06189 11.4734 3.15829 11.5661 3.22247C11.5828 3.23403 11.598 3.24455 11.6113 3.25373C11.6825 3.29711 11.7523 3.3463 11.8008 3.38108C11.8703 3.43084 11.9459 3.48722 12.0148 3.53905C12.0466 3.56299 12.0757 3.58496 12.1032 3.60572C12.1398 3.63334 12.1736 3.65882 12.2072 3.68399C12.235 3.70477 12.2581 3.72189 12.2768 3.73546C12.286 3.74217 12.2932 3.74731 12.2986 3.75112C12.3032 3.75437 12.3054 3.75584 12.3055 3.75593L12.3309 3.77282L12.3553 3.79143C13.4296 4.6098 14.3863 5.57128 15.2029 6.64285L15.2037 6.64385L15.2044 6.64486C16.1071 7.83583 16.8199 9.15786 17.3141 10.5648C18.7868 14.6782 18.3537 19.4303 16.0391 23.1816L14.3823 22.1596C16.377 18.9269 16.761 14.7929 15.4804 11.2183L15.4793 11.2154L15.4783 11.2125C15.0517 9.99723 14.4356 8.85333 13.6536 7.82136C12.946 6.89309 12.1197 6.0618 11.1951 5.35465C11.1439 5.31919 11.0873 5.27709 11.0409 5.2424C11.0058 5.21615 10.9645 5.18501 10.9239 5.15431C10.8965 5.13369 10.8695 5.11327 10.8448 5.09467C10.7779 5.04442 10.7172 4.99926 10.6669 4.96323C10.6221 4.93113 10.6035 4.91928 10.6036 4.9191C10.6036 4.91909 10.6034 4.91902 10.6036 4.9191L10.5749 4.9029L10.5411 4.87999C10.4913 4.84624 10.4471 4.8156 10.4065 4.78751C10.3174 4.72585 10.246 4.67649 10.1736 4.63349L10.1262 4.60535L10.0823 4.57203C10.085 4.57411 10.0848 4.57397 10.0809 4.57141C10.0737 4.5666 10.0537 4.55328 10.0162 4.53C9.96676 4.49935 9.90615 4.46317 9.84139 4.42524C9.74951 4.37144 9.66584 4.32371 9.59967 4.28596C9.56879 4.26834 9.54172 4.25289 9.51941 4.24002L9.51741 4.23887C9.51397 4.23696 9.50893 4.23418 9.50138 4.23002C9.49903 4.22873 9.4965 4.22733 9.4938 4.22585C9.47876 4.21757 9.45868 4.20653 9.43825 4.19515C9.41436 4.18184 9.38531 4.1655 9.35708 4.14898C9.34162 4.13993 9.31281 4.12298 9.28059 4.10206C9.24093 4.07843 9.19842 4.05559 9.1478 4.02839C9.14705 4.02799 9.14629 4.02758 9.14554 4.02718C9.08498 3.99851 9.00961 3.96257 8.9296 3.92442C8.77908 3.85266 8.61208 3.77304 8.49613 3.71912L8.48365 3.71331L8.43126 3.68712C8.24747 3.60192 8.02745 3.5185 7.78099 3.42506C7.72741 3.40475 7.67258 3.38396 7.6166 3.36258C7.46468 3.30806 7.30692 3.25841 7.14165 3.2064ZM9.51941 4.24002C9.52047 4.24062 9.52114 4.24096 9.52115 4.24097ZM9.51941 4.24002C9.52047 4.24062 9.52114 4.24096 9.52115 4.24097Z"
    fill="#000000" />
  <path fill-rule="evenodd" clip-rule="evenodd"
    d="M11.2407 7.83868C14.1786 7.30822 16.8896 5.66039 18.7438 3.31485L20.2711 4.52177C18.1283 7.23238 15.0003 9.13779 11.5864 9.75414C9.88659 10.0606 8.13985 10.071 6.43504 9.75843C4.73487 9.45538 3.09428 8.84504 1.61048 7.95399L2.61284 6.28543C3.89145 7.05326 5.30854 7.58083 6.77899 7.84265L6.78153 7.8431L6.78407 7.84357C8.24999 8.1126 9.76122 8.1054 11.2407 7.83868Z"
    fill="#000000" />
  <path fill-rule="evenodd" clip-rule="evenodd"
    d="M6.0398 21.8667C7.7018 13.3859 16.3446 8.70231 23.413 10.6289L22.901 12.5067C16.9008 10.8713 9.39027 14.8927 7.95022 22.2409L6.0398 21.8667Z"
    fill="#000000" />
</svg>