<?xml version="1.0" encoding="UTF-8"?>
<svg width="266px" height="266px" viewBox="0 0 266 266" version="1.1" xmlns="http://www.w3.org/2000/svg" xmlns:xlink="http://www.w3.org/1999/xlink">
    <title>square/blush/happy</title>
    <defs>
        <rect id="path-1" x="0" y="-1" width="266" height="266"></rect>
        <path d="M61.8514259,62.8241206 C29.0377743,62.8241206 -4.29336159,45.0531552 0.453662129,17.363947 C5.20068585,-10.3252613 37.9888327,3.365726 61.8514259,3.51532953 L61.9820101,3.51480905 L61.982298,3.50546419 L62.4907045,3.51397069 L62.4907045,3.51397069 L62.9976015,3.50546419 L62.9972211,3.51480905 L63.1284736,3.51532953 C86.7524409,3.36722203 119.124343,-10.0527957 124.375451,16.5456298 L124.526237,17.363947 C129.273261,45.0531552 95.9421252,62.8241206 63.1284736,62.8241206 L61.9817348,62.8204036 L61.9817348,62.8204036 L62.9981647,62.8204036 L61.8514259,62.8241206 L61.8514259,62.8241206 Z" id="path-3"></path>
    </defs>
    <g id="Logo" stroke="none" stroke-width="1" fill="none" fill-rule="evenodd">
        <g id="Blushy-Icon-Square" transform="translate(0.000000, 1.000000)">
            <mask id="mask-2" fill="white">
                <use xlink:href="#path-1"></use>
            </mask>
            <use id="Container" fill="#91D7E0" fill-rule="evenodd" xlink:href="#path-1"></use>
            <g id="Blushy-Expressions/Happy-3" mask="url(#mask-2)" fill-rule="evenodd" stroke-width="1">
                <g id="blushes" transform="translate(-51.462312, 114.286432)" fill="#FF5989">
                    <g id="Group-7">
                        <ellipse id="blush-circles" cx="64.3613009" cy="62.4899497" rx="63.8266332" ry="62.4899497"></ellipse>
                    </g>
                    <g id="Group-7" transform="translate(240.603015, 0.000000)">
                        <ellipse id="blush-circles" cx="64.3613009" cy="62.4899497" rx="63.8266332" ry="62.4899497"></ellipse>
                    </g>
                </g>
                <g id="Group-6" transform="translate(33.417085, 80.201005)" fill="#000000">
                    <circle id="Oval" fill-rule="nonzero" cx="16.4412101" cy="16.5080445" r="16.3743719"></circle>
                    <circle id="Oval" fill-rule="nonzero" cx="182.189954" cy="16.5080445" r="16.3743719"></circle>
                </g>
                <g id="Oval" transform="translate(70.844221, 110.944724)">
                    <mask id="mask-4" fill="white">
                        <use xlink:href="#path-3"></use>
                    </mask>
                    <use id="Path" fill="#000000" fill-rule="nonzero" xlink:href="#path-3"></use>
                    <ellipse fill="#FF5989" mask="url(#mask-4)" cx="48.4547739" cy="70.1758794" rx="27.7361809" ry="27.4020101"></ellipse>
                    <rect id="Rectangle" fill="#FFFFFF" mask="url(#mask-4)" x="16.7085427" y="-10.6934673" width="24.7286432" height="28.0703518" rx="12.3643216"></rect>
                    <rect id="Rectangle" fill="#FFFFFF" mask="url(#mask-4)" x="44.7788945" y="-10.6934673" width="24.7286432" height="28.0703518" rx="12.3643216"></rect>
                    <ellipse fill="#FF5989" mask="url(#mask-4)" cx="76.5251256" cy="70.1758794" rx="27.7361809" ry="27.4020101"></ellipse>
                </g>
            </g>
        </g>
    </g>
</svg>