<svg xmlns="http://www.w3.org/2000/svg" width="133" height="25.65" viewBox="0 0 133 25.65">
  <g id="Group_2210" data-name="Group 2210" transform="translate(0)">
    <g id="Group_2206" data-name="Group 2206" transform="translate(0 2.688)">
      <path id="Path_13318" data-name="Path 13318" d="M774.2,1176.5v-18.063h10.3v1.538h-8.523v6.359h7.559v1.538h-7.559v8.627Z" transform="translate(-774.204 -1158.441)" fill="#2c2c2c"/>
      <path id="Path_13319" data-name="Path 13319" d="M798.822,1165.457a9.117,9.117,0,0,1,1.577.13,4.838,4.838,0,0,1,1.029.26l-.339,1.46a3.8,3.8,0,0,0-.847-.221,9.664,9.664,0,0,0-1.682-.117,7.951,7.951,0,0,0-1.759.156,4.9,4.9,0,0,0-.873.261v11.807h-1.694v-12.85a12.541,12.541,0,0,1,1.8-.587A11.211,11.211,0,0,1,798.822,1165.457Z" transform="translate(-781.881 -1161.13)" fill="#2c2c2c"/>
      <path id="Path_13320" data-name="Path 13320" d="M807.674,1172.409a8.563,8.563,0,0,1,.508-3.089,6.817,6.817,0,0,1,1.329-2.2,5.244,5.244,0,0,1,1.877-1.316,5.718,5.718,0,0,1,2.176-.43,5.084,5.084,0,0,1,3.949,1.616,7.21,7.21,0,0,1,1.473,4.978c0,.139,0,.279-.013.417s-.022.27-.039.392h-9.461a5.962,5.962,0,0,0,1.225,3.805,4.574,4.574,0,0,0,3.649,1.328,7.371,7.371,0,0,0,2.189-.26,9.135,9.135,0,0,0,1.173-.443l.313,1.46a7.09,7.09,0,0,1-1.369.5,8.659,8.659,0,0,1-2.358.286,7.847,7.847,0,0,1-3.024-.521,5.41,5.41,0,0,1-2.059-1.46,5.765,5.765,0,0,1-1.172-2.228A10.35,10.35,0,0,1,807.674,1172.409Zm9.565-1.069a5.355,5.355,0,0,0-.99-3.284,3.208,3.208,0,0,0-2.658-1.173,3.543,3.543,0,0,0-1.629.365,4.136,4.136,0,0,0-1.251.977,4.539,4.539,0,0,0-.834,1.42,5.822,5.822,0,0,0-.352,1.694Z" transform="translate(-787.032 -1161.097)" fill="#2c2c2c"/>
      <path id="Path_13321" data-name="Path 13321" d="M829.777,1172.409a8.565,8.565,0,0,1,.508-3.089,6.818,6.818,0,0,1,1.329-2.2,5.242,5.242,0,0,1,1.877-1.316,5.718,5.718,0,0,1,2.176-.43,5.084,5.084,0,0,1,3.949,1.616,7.21,7.21,0,0,1,1.473,4.978c0,.139-.005.279-.013.417s-.022.27-.04.392h-9.461a5.961,5.961,0,0,0,1.225,3.805,4.574,4.574,0,0,0,3.649,1.328,7.371,7.371,0,0,0,2.189-.26,9.123,9.123,0,0,0,1.173-.443l.313,1.46a7.092,7.092,0,0,1-1.369.5,8.66,8.66,0,0,1-2.358.286,7.847,7.847,0,0,1-3.024-.521,5.4,5.4,0,0,1-2.059-1.46,5.759,5.759,0,0,1-1.173-2.228A10.353,10.353,0,0,1,829.777,1172.409Zm9.566-1.069a5.355,5.355,0,0,0-.99-3.284,3.208,3.208,0,0,0-2.658-1.173,3.543,3.543,0,0,0-1.629.365,4.136,4.136,0,0,0-1.251.977,4.537,4.537,0,0,0-.834,1.42,5.822,5.822,0,0,0-.352,1.694Z" transform="translate(-795.503 -1161.097)" fill="#2c2c2c"/>
    </g>
    <g id="Group_2207" data-name="Group 2207" transform="translate(129.344 1.315)">
      <path id="Path_13322" data-name="Path 13322" d="M984.644,1156.216a1.5,1.5,0,0,1,.859.205.776.776,0,0,1-.223,1.343c.047.057.1.128.161.209s.121.172.183.268.122.194.179.3.109.2.154.3h-.528c-.047-.09-.1-.18-.153-.271s-.11-.18-.167-.265-.112-.168-.167-.244-.106-.144-.154-.2c-.035,0-.065,0-.089,0h-.3v.981h-.471v-2.556a2.643,2.643,0,0,1,.366-.051C984.426,1156.22,984.542,1156.216,984.644,1156.216Zm.034.408c-.1,0-.192,0-.277.011v.838h.206a2.27,2.27,0,0,0,.3-.019.642.642,0,0,0,.219-.068.321.321,0,0,0,.133-.131.427.427,0,0,0,.045-.208.416.416,0,0,0-.045-.2.336.336,0,0,0-.129-.131.633.633,0,0,0-.2-.069A1.476,1.476,0,0,0,984.678,1156.624Z" transform="translate(-983.93 -1156.216)" fill="#2c2c2c"/>
    </g>
    <g id="Group_2209" data-name="Group 2209" transform="translate(48.744 2.688)">
      <g id="Group_2208" data-name="Group 2208">
        <path id="Path_13323" data-name="Path 13323" d="M853.241,1158.441h3.284V1176.5h-3.284Z" transform="translate(-853.241 -1158.441)" fill="#2c2c2c"/>
        <path id="Path_13324" data-name="Path 13324" d="M872.038,1171.911a6.644,6.644,0,0,0-.534-3.088,2.083,2.083,0,0,0-1.994-.952,9.265,9.265,0,0,0-1.147.078q-.625.079-.938.131v11h-3.154V1165.89a21.188,21.188,0,0,1,2.385-.5,19.752,19.752,0,0,1,3.114-.235,6.193,6.193,0,0,1,2.307.365,4.469,4.469,0,0,1,1.5.965,6.164,6.164,0,0,1,.73-.443,7.465,7.465,0,0,1,.99-.43,9.181,9.181,0,0,1,1.16-.326,5.924,5.924,0,0,1,1.238-.131,6.514,6.514,0,0,1,2.62.456,3.859,3.859,0,0,1,1.616,1.277,4.967,4.967,0,0,1,.808,1.982,13.591,13.591,0,0,1,.221,2.541v7.663h-3.154v-7.168a6.788,6.788,0,0,0-.521-3.088,2.079,2.079,0,0,0-2.007-.952,4.131,4.131,0,0,0-1.433.247,4.715,4.715,0,0,0-1.017.482,6.939,6.939,0,0,1,.287,1.381,14.633,14.633,0,0,1,.078,1.564v7.533h-3.154Z" transform="translate(-857.469 -1161.016)" fill="#2c2c2c"/>
        <path id="Path_13325" data-name="Path 13325" d="M903.707,1165.076a7.711,7.711,0,0,1,2.632.391,4.219,4.219,0,0,1,1.707,1.094,4.111,4.111,0,0,1,.912,1.708,8.346,8.346,0,0,1,.274,2.2v8.262q-.73.157-2.2.378a22.548,22.548,0,0,1-3.323.221,10,10,0,0,1-2.242-.234,4.713,4.713,0,0,1-1.734-.755,3.568,3.568,0,0,1-1.121-1.356,4.7,4.7,0,0,1-.4-2.059,3.973,3.973,0,0,1,.456-1.98,3.74,3.74,0,0,1,1.238-1.317,5.385,5.385,0,0,1,1.811-.73,10.262,10.262,0,0,1,2.151-.221,9.769,9.769,0,0,1,1.095.065,10.422,10.422,0,0,1,1.225.221v-.521a4.1,4.1,0,0,0-.13-1.042,2.086,2.086,0,0,0-1.317-1.46,3.725,3.725,0,0,0-1.342-.208,11.849,11.849,0,0,0-2.007.157,8.837,8.837,0,0,0-1.486.365l-.391-2.555a12.592,12.592,0,0,1,1.747-.417A13.719,13.719,0,0,1,903.707,1165.076Zm.26,11.755a11.739,11.739,0,0,0,2.215-.157v-3.493a6.157,6.157,0,0,0-.755-.157,7.025,7.025,0,0,0-1.095-.078,7.244,7.244,0,0,0-1.056.078,3.288,3.288,0,0,0-.965.287,1.75,1.75,0,0,0-.691.586,1.638,1.638,0,0,0-.26.951,1.667,1.667,0,0,0,.7,1.551A3.628,3.628,0,0,0,903.967,1176.832Z" transform="translate(-870.475 -1160.984)" fill="#2c2c2c"/>
        <path id="Path_13326" data-name="Path 13326" d="M932.073,1177.7q0,3.258-1.655,4.77a7.325,7.325,0,0,1-5.07,1.512,14.075,14.075,0,0,1-2.437-.208,13.708,13.708,0,0,1-2.151-.548l.573-2.684a9.8,9.8,0,0,0,1.837.546,11.2,11.2,0,0,0,2.229.208,3.83,3.83,0,0,0,2.711-.781,3.089,3.089,0,0,0,.808-2.32v-.521a8.261,8.261,0,0,1-1.238.469,6.019,6.019,0,0,1-1.759.235,6.573,6.573,0,0,1-2.385-.417,4.985,4.985,0,0,1-1.851-1.225,5.6,5.6,0,0,1-1.2-2.02,8.373,8.373,0,0,1-.43-2.8,7.931,7.931,0,0,1,.456-2.736,5.852,5.852,0,0,1,1.33-2.138,6.085,6.085,0,0,1,2.124-1.381,7.676,7.676,0,0,1,2.841-.5,17.393,17.393,0,0,1,2.919.235q1.381.235,2.346.5Zm-8.784-5.786a4.165,4.165,0,0,0,.873,2.933,2.961,2.961,0,0,0,2.255.925,4.7,4.7,0,0,0,1.42-.208,4.045,4.045,0,0,0,1.082-.495V1168c-.226-.052-.5-.1-.834-.144a9.946,9.946,0,0,0-1.251-.065,3.182,3.182,0,0,0-2.633,1.134A4.615,4.615,0,0,0,923.289,1171.911Z" transform="translate(-878.85 -1161.016)" fill="#2c2c2c"/>
        <path id="Path_13327" data-name="Path 13327" d="M943.766,1172.3a8.575,8.575,0,0,1,.534-3.154,6.616,6.616,0,0,1,1.421-2.254,5.862,5.862,0,0,1,2.033-1.356,6.293,6.293,0,0,1,2.346-.456,5.617,5.617,0,0,1,4.392,1.747,7.556,7.556,0,0,1,1.576,5.212c0,.175,0,.37-.013.587s-.022.413-.039.587h-8.992a3.594,3.594,0,0,0,1.159,2.542,4.41,4.41,0,0,0,2.984.9,9.744,9.744,0,0,0,2.1-.208,8.592,8.592,0,0,0,1.5-.443l.416,2.581a5.018,5.018,0,0,1-.717.274,10.326,10.326,0,0,1-1.042.26q-.586.118-1.264.2a11.992,11.992,0,0,1-1.381.078,8.378,8.378,0,0,1-3.127-.533,5.824,5.824,0,0,1-2.189-1.486,6.079,6.079,0,0,1-1.277-2.241A9.147,9.147,0,0,1,943.766,1172.3Zm9.149-1.408a4.149,4.149,0,0,0-.183-1.238,3,3,0,0,0-.534-1.016,2.537,2.537,0,0,0-.86-.678,2.748,2.748,0,0,0-1.212-.247,2.812,2.812,0,0,0-1.277.274,2.9,2.9,0,0,0-.925.717,3.265,3.265,0,0,0-.587,1.016,5.471,5.471,0,0,0-.287,1.172Z" transform="translate(-887.937 -1160.984)" fill="#2c2c2c"/>
        <path id="Path_13328" data-name="Path 13328" d="M970.833,1176.779a4.14,4.14,0,0,0,1.824-.3,1.066,1.066,0,0,0,.574-1.03,1.337,1.337,0,0,0-.612-1.121,9.041,9.041,0,0,0-2.02-.964,15.929,15.929,0,0,1-1.576-.665,5.361,5.361,0,0,1-1.238-.822,3.351,3.351,0,0,1-.821-1.134,3.94,3.94,0,0,1-.3-1.629,3.553,3.553,0,0,1,1.381-2.958,5.933,5.933,0,0,1,3.753-1.082,11.512,11.512,0,0,1,2.294.222,11.253,11.253,0,0,1,1.642.43l-.574,2.554a7.808,7.808,0,0,0-1.33-.43,8.005,8.005,0,0,0-1.876-.2,3.268,3.268,0,0,0-1.564.326,1.069,1.069,0,0,0-.6,1,1.457,1.457,0,0,0,.117.6,1.289,1.289,0,0,0,.4.483,4.175,4.175,0,0,0,.756.443,11.736,11.736,0,0,0,1.147.456,17.381,17.381,0,0,1,1.9.821,5.165,5.165,0,0,1,1.291.912,3.123,3.123,0,0,1,.743,1.159,4.626,4.626,0,0,1,.234,1.564,3.368,3.368,0,0,1-1.446,2.958,7.2,7.2,0,0,1-4.131,1,11.339,11.339,0,0,1-2.893-.3,14.911,14.911,0,0,1-1.538-.482l.548-2.632a14.15,14.15,0,0,0,1.681.547A8.661,8.661,0,0,0,970.833,1176.779Z" transform="translate(-896.602 -1160.984)" fill="#2c2c2c"/>
      </g>
    </g>
    <path id="Path_13329" data-name="Path 13329" d="M983.719,1159.557a2.737,2.737,0,1,1,2.737-2.736A2.74,2.74,0,0,1,983.719,1159.557Zm0-5.011a2.274,2.274,0,1,0,2.274,2.275A2.277,2.277,0,0,0,983.719,1154.546Z" transform="translate(-853.456 -1154.083)" fill="#2c2c2c"/>
  </g>
</svg>